Coordinates
version=1
nRows=7
nColumns=46
inDegrees=yes

Units are S.I. units (second, meters, Newtons, ...)
Angles are in degrees.

endheader
time	pelvis_tilt	pelvis_list	pelvis_rotation	pelvis_tx	pelvis_ty	pelvis_tz	bb_angle	bb_tx	bb_ty	bb_tz	hip_flexion_r	hip_adduction_r	hip_rotation_r	knee_angle_r	knee_angle_r_beta	ankle_angle_r	subtalar_angle_r	mtp_angle_r	crank_angle_r	hip_flexion_l	hip_adduction_l	hip_rotation_l	knee_angle_l	knee_angle_l_beta	ankle_angle_l	subtalar_angle_l	mtp_angle_l	crank_angle_l	lumbar_extension	lumbar_bending	lumbar_rotation	arm_flex_r	arm_add_r	arm_rot_r	elbow_flex_r	pro_sup_r	wrist_flex_r	wrist_dev_r	arm_flex_l	arm_add_l	arm_rot_l	elbow_flex_l	pro_sup_l	wrist_flex_l	wrist_dev_l
      5.00500000	    -21.88126478	      8.81337809	     -7.62001419	      0.41125928	      1.17539475	     -0.23192220	      0.00000000	      0.50000000	      0.00000000	      0.25000000	     43.82143322	     -6.30499700	     12.76366509	     39.15043942	      0.68330407	     -0.92355828	     -9.13861572	      0.00000000	      0.00000000	     46.50207488	      7.26992540	      2.12489632	     81.29503227	      1.41886598	    -16.57184998	    -13.70697657	      0.00000000	      0.00000000	    -58.34821808	    -10.19662986	      0.05858441	     56.88049696	    -46.16897624	     51.40695560	     85.80193885	     59.11020633	      0.00000000	      0.00000000	     48.16609597	    -17.44070268	     25.24844054	     74.09630917	     52.54732089	      0.00000000	      0.00000000
      5.01000000	    -21.92666311	      9.39389286	     -6.45503705	      0.41107129	      1.17362633	     -0.23192898	      0.00000000	      0.50000000	      0.00000000	      0.25000000	     42.38452744	     -7.52825340	     12.72807791	     36.92903015	      0.64453317	     -2.46051897	     -9.36085369	      0.00000000	      0.00000000	     48.02905107	      8.55149319	      2.51078828	     83.65135350	      1.45999154	    -15.43383870	    -13.75561235	      0.00000000	      0.00000000	    -58.05880857	    -10.25900070	     -1.27097986	     55.97478925	    -45.64728085	     51.01979898	     85.33853455	     58.98166176	      0.00000000	      0.00000000	     48.11412814	    -17.66073708	     25.46192270	     74.22990910	     52.58301255	      0.00000000	      0.00000000
      5.01500000	    -22.21477525	      9.60957237	     -5.24033193	      0.41047033	      1.17143175	     -0.23155238	      0.00000000	      0.50000000	      0.00000000	      0.25000000	     40.98757831	     -8.29276082	     12.70870374	     34.60931075	      0.60404642	     -4.31221784	    -10.55974658	      0.00000000	      0.00000000	     49.80929917	      9.50883723	      3.10193012	     86.09769790	      1.50268831	    -14.09800447	    -13.81022747	      0.00000000	      0.00000000	    -57.48300700	    -10.06342253	     -2.67561355	     54.56498991	    -43.44092387	     49.02785242	     83.82675306	     58.49875287	      0.00000000	      0.00000000	     47.93583231	    -18.82034881	     25.94342644	     74.91746357	     52.74065436	      0.00000000	      0.00000000
      5.02000000	    -22.49283682	     10.00632886	     -3.94835111	      0.41005790	      1.16951310	     -0.23137919	      0.00000000	      0.50000000	      0.00000000	      0.25000000	     39.61794842	     -9.34968343	     12.51223528	     32.40015793	      0.56548943	     -5.86504069	    -11.13548291	      0.00000000	      0.00000000	     51.52889064	     10.72260106	      3.58496078	     88.30947584	      1.54129111	    -12.89664927	    -13.96954788	      0.00000000	      0.00000000	    -57.00266678	    -10.00599611	     -4.11512836	     53.48487254	    -42.11852825	     47.90324115	     82.94272657	     58.23260082	      0.00000000	      0.00000000	     47.88082576	    -19.43812705	     26.20309497	     75.27036952	     52.81757317	      0.00000000	      0.00000000
      5.02500000	    -22.88779052	     10.31135428	     -2.60757804	      0.40959767	      1.16763099	     -0.23096081	      0.00000000	      0.50000000	      0.00000000	      0.25000000	     38.30405723	    -10.32867413	     12.10920014	     30.20209820	      0.52712605	     -7.56319050	    -11.60450203	      0.00000000	      0.00000000	     53.34453329	     11.86654947	      4.06500190	     90.39417574	      1.57767599	    -11.74194252	    -14.12258943	      0.00000000	      0.00000000	    -56.46600869	     -9.89388421	     -5.55412827	     52.41133444	    -40.71407803	     46.79602571	     82.00610996	     57.97371918	      0.00000000	      0.00000000	     47.83407061	    -20.31942780	     26.72593342	     75.71901761	     52.94328550	      0.00000000	      0.00000000
      5.03000000	    -23.31064239	     10.86263524	     -1.50270097	      0.40925150	      1.16577146	     -0.23047876	      0.00000000	      0.50000000	      0.00000000	      0.25000000	     37.13533939	    -11.45632219	     11.94273001	     28.14156642	      0.49116299	     -8.69787310	    -11.12034230	      0.00000000	      0.00000000	     55.18444887	     12.96502120	      4.08754371	     92.29952174	      1.61093055	    -10.59238403	    -14.43443737	      0.00000000	      0.00000000	    -55.95808455	    -10.20577980	     -6.72160019	     51.66842242	    -40.44643892	     46.71767407	     81.68186662	     57.91078312	      0.00000000	      0.00000000	     47.99386357	    -20.40515922	     26.93766348	     75.86319929	     52.97568834	      0.00000000	      0.00000000
      5.03500000	    -23.87459353	     11.03165389	     -0.11645025	      0.40911329	      1.16387447	     -0.22998263	      0.00000000	      0.50000000	      0.00000000	      0.25000000	     35.86732857	    -12.34703037	     11.20955659	     25.96803972	      0.45322779	    -10.44133629	    -11.62575424	      0.00000000	      0.00000000	     57.14707074	     13.85212484	      4.43128049	     94.18907478	      1.64390947	     -9.44104613	    -14.17192820	      0.00000000	      0.00000000	    -55.22375189	    -10.06873147	     -8.69443222	     50.11988501	    -37.04029793	     44.04094067	     79.44358523	     57.30772833	      0.00000000	      0.00000000	     47.60021202	    -22.50739123	     27.91972904	     76.88986737	     53.23477471	      0.00000000	      0.00000000
